<svg width="225" height="122" viewBox="0 0 225 122" fill="none" xmlns="http://www.w3.org/2000/svg">
<rect y="0.746429" width="225" height="120.507" rx="16.6628" fill="white"/>
<path d="M42.3305 59.2267L40.854 60.3379L40.7931 60.3836L40.6105 60.5129L36.9421 57.7503L36.7138 57.5828C36.0044 57.0326 35.43 56.3277 35.0344 55.5219C34.6387 54.716 34.4322 53.8305 34.4306 52.9327C34.4301 52.5493 34.4684 52.1669 34.5448 51.7911C34.5762 51.6109 34.6194 51.433 34.6741 51.2584L34.7426 51.0377V50.9464L34.9329 50.3679L35.0775 49.9341C35.0738 50.0051 35.0738 50.0763 35.0775 50.1472C35.0775 50.2233 35.0775 50.2918 35.0775 50.3679C35.334 51.8012 36.1155 53.0874 37.2694 53.9754L37.3607 54.0515L38.7154 54.9039C38.7944 54.9733 38.8783 55.0369 38.9666 55.0942L43.0839 58.1917L43.396 58.4352L42.4522 59.1506L42.3305 59.2267Z" fill="black"/>
<path d="M48.2818 54.7294L45.7017 56.6777L45.5191 56.8147L45.0853 56.4874L43.2283 55.0795L42.9239 54.8588L42.4292 54.4858L38.6695 51.6471C37.96 51.1003 37.3853 50.3983 36.9895 49.5948C36.5937 48.7913 36.3874 47.9078 36.3863 47.0122C36.3855 46.6287 36.4237 46.2462 36.5005 45.8706C36.5319 45.6903 36.5751 45.5124 36.6298 45.3378L36.7364 45.0715V44.9725L36.9343 44.3941L37.0713 43.9603C37.0676 44.0313 37.0676 44.1024 37.0713 44.1734C37.0676 44.2469 37.0676 44.3206 37.0713 44.3941C37.3285 45.8252 38.1067 47.1103 39.2555 48.0016L40.5493 48.9757C40.6272 49.0433 40.7085 49.1068 40.7929 49.166L44.9102 52.2635L45.6713 52.8115L45.9072 52.9941L46.1888 53.1996L48.2818 54.7294Z" fill="black"/>
<path d="M73.2372 69.0753C73.2371 69.4583 73.2015 69.8405 73.1306 70.2169C73.1306 70.3996 73.0469 70.5822 73.0013 70.7573L72.9251 70.9856V71.0769L72.7349 71.6629L72.5903 72.0967V71.876C72.5903 71.8075 72.5903 71.7314 72.5903 71.6629C72.3321 70.2282 71.5512 68.9402 70.3984 68.0479L70.2995 67.9794L69.0057 67.1422L68.7545 66.9595L64.6372 63.8544L64.3175 63.6185L65.2688 62.9031L65.3678 62.827L66.8747 61.6778L66.9356 61.6321L67.1182 61.4951L70.7866 64.2654L71.0073 64.4328C71.7067 64.9869 72.2709 65.6928 72.6572 66.4971C73.0436 67.3014 73.2419 68.183 73.2372 69.0753Z" fill="black"/>
<path d="M71.2815 75.0041C71.2824 75.385 71.2441 75.7649 71.1674 76.138C71.1359 76.3208 71.0927 76.5013 71.038 76.6784L70.9695 76.8991L70.9314 76.9904L70.7412 77.5764L70.5966 78.0103C70.6003 77.9367 70.6003 77.8631 70.5966 77.7895C70.5966 77.7211 70.5966 77.6449 70.5966 77.5764C70.3119 76.1414 69.5035 74.8636 68.3286 73.9918L67.0424 73.0177L66.7912 72.835L62.6739 69.7299L61.9128 69.1819L61.6693 68.9992L61.3953 68.7938L59.3708 67.2716L60.9691 66.0615L62.1335 65.1863L62.5673 65.5136L64.4319 66.9215L64.7364 67.1422L65.231 67.5152L68.9907 70.3539C69.7015 70.9034 70.2773 71.608 70.6743 72.4138C71.0714 73.2197 71.279 74.1057 71.2815 75.0041Z" fill="black"/>
<path d="M69.3181 80.9246C69.3215 81.3053 69.2858 81.6853 69.2116 82.0586C69.1727 82.2676 69.1193 82.4736 69.0517 82.6751L68.9832 82.8882C68.9095 83.0987 68.8231 83.3046 68.7245 83.5047C68.2381 84.5025 67.4803 85.3431 66.538 85.93C65.5957 86.517 64.5071 86.8264 63.397 86.8229H44.2867C43.1766 86.8264 42.0879 86.517 41.1457 85.93C40.2034 85.3431 39.4456 84.5025 38.9592 83.5047C38.8613 83.3079 38.7773 83.1044 38.7081 82.8958L38.632 82.6751L38.4341 82.0891V82.013L38.4874 82.0662C39.5552 82.995 40.9231 83.5059 42.3383 83.5047H63.4122C63.9408 83.4999 64.4552 83.3333 64.8863 83.0274C65.3174 82.7215 65.6445 82.291 65.8235 81.7936C66.0026 81.2963 66.025 80.756 65.8878 80.2455C65.7506 79.7351 65.4604 79.2788 65.0561 78.9383L64.9572 78.8622L63.2905 77.6064L63.123 77.4922L60.7866 75.7037H60.7333L60.3071 75.3841L59.8733 75.0568L59.8276 75.0188L55.4591 71.7081L54.9416 71.32L54.5458 71.0156L54.6676 70.9242L57.3085 68.9303L60.9159 71.6473C60.9159 71.6473 60.9159 71.7005 60.9159 71.731H61.0377L65.353 75.0188L66.8751 76.1452L66.9969 76.2365C67.4927 76.6168 67.9244 77.0742 68.2754 77.5912C68.4289 77.8131 68.5638 78.0473 68.6788 78.2914C69.0961 79.1066 69.3151 80.0088 69.3181 80.9246Z" fill="url(#paint0_linear_30_5546)"/>
<path d="M69.2716 39.9947L69.2107 39.9414C68.1409 39.011 66.77 38.4999 65.3521 38.503H44.2858C43.7553 38.5036 43.2377 38.6676 42.8038 38.9729C42.3699 39.2783 42.0406 39.7099 41.8609 40.2091C41.6812 40.7084 41.6597 41.2508 41.7995 41.7627C41.9393 42.2745 42.2334 42.7308 42.6419 43.0694L42.7409 43.1455L44.4076 44.4013L44.575 44.5231L46.942 46.3039H46.9876L47.4214 46.6236L47.8552 46.9509H47.8933L52.2923 50.2615L52.8098 50.6572L53.2131 50.9541L53.0914 51.0454L50.6255 52.9024L50.4429 53.0394L46.8278 50.3985C46.8278 50.3985 46.8278 50.3452 46.8278 50.3224H46.7136L42.2995 46.9965L40.7773 45.8625L40.6632 45.7788C40.1673 45.3985 39.7356 44.9411 39.3846 44.4241C39.2312 44.2048 39.0963 43.9732 38.9812 43.7315C38.574 42.9136 38.363 42.012 38.3648 41.0983C38.3639 40.7174 38.4021 40.3374 38.4789 39.9643C38.518 39.7536 38.5688 39.5452 38.6311 39.3402L38.7148 39.1119C38.7926 38.9043 38.8815 38.701 38.9812 38.503C39.4651 37.5026 40.2221 36.6594 41.1648 36.0709C42.1074 35.4824 43.1974 35.1726 44.3087 35.1772H63.4038C64.5151 35.1726 65.605 35.4824 66.5477 36.0709C67.4904 36.6594 68.2474 37.5026 68.7313 38.503C68.8298 38.6979 68.9162 38.8987 68.99 39.1043L69.0661 39.325L69.2564 39.9186L69.2716 39.9947Z" fill="url(#paint1_linear_30_5546)"/>
<path d="M71.2282 45.9083L71.1673 45.855C70.0975 44.9245 68.7266 44.4135 67.3087 44.4166H45.7097L45.0323 43.9067L44.9106 43.8154L43.2134 42.5292L43.1753 42.4911C42.9679 42.3203 42.8013 42.1052 42.6881 41.8615C42.5748 41.6178 42.5176 41.3518 42.5208 41.0831H65.3528C66.5705 41.0938 67.756 41.4753 68.7514 42.177C69.7467 42.8786 70.5045 43.8669 70.9238 45.0102L70.9923 45.2385L71.1901 45.8246L71.2282 45.9083Z" fill="#1456FC"/>
<path d="M73.2443 52.9252C73.2472 53.8366 73.036 54.736 72.6278 55.5509C72.2274 56.3526 71.6527 57.0547 70.9459 57.6058L69.3096 58.8311L67.0873 60.513L66.4328 61.0077L64.9106 62.1569L64.8117 62.2406L63.3429 63.3366L63.0156 63.5801L60.5345 65.4523L57.2619 67.903L56.9347 68.1465L53.5251 70.7265L53.312 70.8787H47.7867L57.7414 63.3366L67.0264 56.3424L67.1938 56.2282L68.9595 54.8964C69.2539 54.658 69.4923 54.3579 69.658 54.0173C69.8237 53.6767 69.9126 53.3039 69.9185 52.9252C69.9152 52.3739 69.7307 51.8391 69.3933 51.4031C69.1547 51.0829 68.8447 50.8227 68.4881 50.643C68.1314 50.4634 67.7378 50.3692 67.3384 50.368H53.5784L52.7488 49.744L52.5433 49.5917L49.1718 47.0498H67.3461C67.99 47.0487 68.6299 47.1515 69.2411 47.3542C70.3639 47.7386 71.3451 48.4519 72.057 49.4015C72.2875 49.704 72.4888 50.0276 72.6583 50.368C72.7556 50.5687 72.8419 50.7745 72.9171 50.9845L72.9627 51.1595C73.0236 51.3625 73.0769 51.568 73.1225 51.776C73.199 52.1544 73.2398 52.5392 73.2443 52.9252Z" fill="#1456FC"/>
<path d="M65.2083 80.9253H42.3764C41.2651 80.9299 40.1752 80.62 39.2325 80.0315C38.2898 79.443 37.5328 78.5999 37.0489 77.5994C36.9504 77.4045 36.864 77.2037 36.7902 76.9982L36.7141 76.7775L36.5238 76.1838V76.1077L36.5847 76.161C37.6545 77.0915 39.0254 77.6025 40.4433 77.5994H61.989L62.6588 78.1093L62.7806 78.2007L64.4473 79.464H64.4929C64.7183 79.6345 64.9005 79.8556 65.0248 80.1094C65.149 80.3632 65.2119 80.6427 65.2083 80.9253Z" fill="#1456FC"/>
<path d="M55.1619 72.4696L58.503 74.9963H40.3592C39.7148 74.9948 39.0749 74.8894 38.4641 74.6843C37.3499 74.2954 36.3772 73.5825 35.671 72.637C35.4329 72.3488 35.2238 72.0378 35.0469 71.7085C34.9483 71.5084 34.8619 71.3026 34.7882 71.092L34.7197 70.8789C34.6504 70.6779 34.5969 70.4718 34.5598 70.2625C34.486 69.8865 34.4503 69.504 34.4533 69.1209C34.4516 68.2096 34.6627 67.3105 35.0698 66.4952C35.1848 66.2536 35.3197 66.0219 35.4731 65.8026C35.8243 65.2857 36.2559 64.8283 36.7517 64.4479L36.8126 64.4023H36.8735L38.3956 63.2683L40.6179 61.5863L40.9452 61.3428L41.2724 61.0993L42.7946 59.9424L42.9011 59.8663L44.0427 58.9226L44.37 58.6791L44.6896 58.4355L46.2118 57.3092L48.9744 55.2238L50.4966 54.0975L51.1511 53.6028L53.9137 51.5251L54.241 51.2739L54.4465 51.1217L54.5682 51.0304L54.69 51.1217H59.9718L50.5498 58.1692L50.2378 58.4127L49.9181 58.6486L48.3275 59.8511L46.8054 61.0079L44.0427 63.0856L43.0686 63.8467L40.6179 65.6961C40.5717 65.7219 40.5284 65.7526 40.4885 65.7874L38.8218 67.0432L38.7229 67.1193C38.3144 67.4579 38.0202 67.9142 37.8804 68.426C37.7407 68.9379 37.7621 69.4803 37.9418 69.9796C38.1215 70.4788 38.4508 70.9104 38.8847 71.2158C39.3187 71.5211 39.8362 71.6852 40.3668 71.6857H54.1116L54.9412 72.3097L55.1543 72.4696H55.1619Z" fill="#1456FC"/>
<path d="M68.7698 51.8371L43.4948 70.8637H40.3593C39.9792 70.8648 39.6087 70.7449 39.3014 70.5212C39.1582 70.4148 39.0301 70.2893 38.9208 70.1483L64.1958 51.1597H67.339C67.6134 51.1558 67.885 51.2149 68.1331 51.3323C68.3811 51.4497 68.5989 51.6224 68.7698 51.8371Z" fill="#1456FC"/>
<path d="M90.5413 74.9277V71.7891L104.847 51.2563H90.4597V47.0192H111.118V50.1578L96.8248 70.6843H111.174V74.9214L90.5413 74.9277Z" fill="#1456FC"/>
<path d="M121.162 47.0192V74.9277H116.14V47.0192H121.162Z" fill="#1456FC"/>
<path d="M149.591 47.0192V74.9277H145.071L131.889 55.914H131.657V74.9277H126.635V47.0192H131.161L144.312 66.0203H144.556V47.0192H149.591Z" fill="#1456FC"/>
<path d="M160.137 47.0192V74.9277H155.077V47.0192H160.137Z" fill="#1456FC"/>
<path d="M190.563 60.9986C190.639 63.6708 190.061 66.3212 188.88 68.7196C187.852 70.7569 186.265 72.4594 184.304 73.6284C182.299 74.7499 180.039 75.3388 177.742 75.3388C175.444 75.3388 173.184 74.7499 171.179 73.6284C169.22 72.455 167.633 70.7509 166.603 68.7133C165.422 66.3171 164.845 63.6688 164.92 60.9986C164.844 58.3264 165.422 55.676 166.603 53.2776C167.631 51.2386 169.218 49.534 171.179 48.3626C173.186 47.2468 175.445 46.6612 177.742 46.6612C180.038 46.6612 182.297 47.2468 184.304 48.3626C186.266 49.5324 187.854 51.2374 188.88 53.2776C190.061 55.676 190.639 58.3264 190.563 60.9986ZM185.485 60.9986C185.537 59.1616 185.199 57.3344 184.493 55.6379C183.928 54.2888 182.978 53.1361 181.762 52.3235C180.55 51.5882 179.159 51.1994 177.742 51.1994C176.324 51.1994 174.933 51.5882 173.721 52.3235C172.505 53.1361 171.555 54.2888 170.99 55.6379C170.284 57.3344 169.946 59.1616 169.999 60.9986C169.946 62.8356 170.284 64.6628 170.99 66.3594C171.56 67.7057 172.509 68.8573 173.721 69.6737C174.933 70.409 176.324 70.7978 177.742 70.7978C179.159 70.7978 180.55 70.409 181.762 69.6737C182.975 68.8573 183.923 67.7057 184.493 66.3594C185.199 64.6628 185.537 62.8356 185.485 60.9986Z" fill="#1456FC"/>
<defs>
<linearGradient id="paint0_linear_30_5546" x1="45.786" y1="90.7804" x2="63.7014" y2="72.8574" gradientUnits="userSpaceOnUse">
<stop offset="0.33" stop-color="#7ABFFF"/>
<stop offset="0.84"/>
</linearGradient>
<linearGradient id="paint1_linear_30_5546" x1="43.989" y1="49.1503" x2="61.9121" y2="31.2349" gradientUnits="userSpaceOnUse">
<stop offset="0.16"/>
<stop offset="0.67" stop-color="#7ABFFF"/>
</linearGradient>
</defs>
</svg>
